<?xml version="1.0" encoding="UTF-8" standalone="no"?>
<!-- Uploaded to: SVG Repo, www.svgrepo.com, Generator: SVG Repo Mixer Tools -->

<svg
   height="800px"
   width="800px"
   version="1.1"
   id="_x32_"
   viewBox="0 0 512 512"
   xml:space="preserve"
   sodipodi:docname="hiker.svg"
   inkscape:version="1.3 (0e150ed6c4, 2023-07-21)"
   xmlns:inkscape="http://www.inkscape.org/namespaces/inkscape"
   xmlns:sodipodi="http://sodipodi.sourceforge.net/DTD/sodipodi-0.dtd"
   xmlns="http://www.w3.org/2000/svg"
   xmlns:svg="http://www.w3.org/2000/svg"><defs
   id="defs3" /><sodipodi:namedview
   id="namedview3"
   pagecolor="#ffffff"
   bordercolor="#000000"
   borderopacity="0.25"
   inkscape:showpageshadow="2"
   inkscape:pageopacity="0.0"
   inkscape:pagecheckerboard="0"
   inkscape:deskcolor="#d1d1d1"
   inkscape:zoom="0.7168295"
   inkscape:cx="412.92943"
   inkscape:cy="475.00835"
   inkscape:window-width="1920"
   inkscape:window-height="1046"
   inkscape:window-x="-11"
   inkscape:window-y="-11"
   inkscape:window-maximized="1"
   inkscape:current-layer="_x32_" />&#10;<style
   type="text/css"
   id="style1">&#10;	.st0{fill:#000000;}&#10;</style>&#10;<g
   id="g3"
   transform="matrix(-1,0,0,1,511.99896,0)"
   style="stroke-width:0.99968;stroke-dasharray:none;fill:#336699;fill-opacity:1">&#10;	<path
   class="st0"
   d="m 257.211,96.925 c 26.765,0 48.459,-21.702 48.459,-48.459 C 305.67,21.694 283.976,0 257.211,0 c -26.772,0 -48.466,21.694 -48.466,48.466 0,26.758 21.694,48.459 48.466,48.459 z"
   id="path1"
   style="stroke-width:0.99968;stroke-dasharray:none;fill:#336699;fill-opacity:1" />&#10;	<path
   class="st0"
   d="m 362.467,398.217 -22.408,-118.394 -9.968,-104.94 c -6.46,-69.589 -73.894,-64.601 -106.811,-32.361 l -54.701,56.091 -51.284,16.609 -10.088,-57.27 c -1.105,-6.257 -7.076,-10.442 -13.334,-9.345 -6.265,1.104 -10.449,7.076 -9.338,13.341 l 10.644,60.44 -1.344,0.436 c -9.961,3.665 -15.301,14.483 -12.154,24.623 l 0.248,0.774 c 2.757,8.894 11.23,14.498 20.252,13.95 l 42.036,238.719 c 1.105,6.256 7.069,10.441 13.334,9.336 6.258,-1.104 10.441,-7.068 9.337,-13.333 l -42.171,-239.515 45.747,-10.366 c 10.682,-2.464 20.83,-6.866 29.912,-12.988 l 29.8,-20.034 10.524,79.993 c 0.766,5.867 -6.138,30.536 -7.708,36.26 l -44.89,152.174 c -3.411,12.274 3.764,25.007 16.038,28.47 l 0.848,0.24 c 11.606,3.268 23.782,-2.892 28.004,-14.182 l 60.515,-148.412 16.046,67.434 c 2.238,4.462 5.198,8.504 8.758,11.989 l 71.475,75.885 c 8.458,8.263 21.837,8.631 30.724,0.841 l 1.074,-0.924 c 4.544,-3.988 7.317,-9.63 7.678,-15.67 0.36,-6.046 -1.706,-11.981 -5.755,-16.473 z"
   id="path2"
   style="stroke-width:0.99968;stroke-dasharray:none;fill:#336699;fill-opacity:1" />&#10;	<path
   class="st0"
   d="m 403.173,271.612 c 8.15,-0.736 15.676,-4.68 20.905,-10.974 5.244,-6.295 7.768,-14.408 7.009,-22.558 l -6.716,-72.692 c -1.562,-16.917 -16.534,-29.387 -33.458,-27.862 l -37.341,3.373 12.387,134.071 z"
   id="path3"
   style="stroke-width:0.99968;stroke-dasharray:none;fill:#336699;fill-opacity:1" />&#10;</g>&#10;</svg>
